<svg xmlns="http://www.w3.org/2000/svg" width="72.94" height="35" viewBox="0 0 72.94 35"><rect class="svg__rect" x="0" y="0" width="0" height="35" fill="#31C4F3"/><rect class="svg__rect" x="0" y="0" width="72.94" height="35" fill="#31C4F3"/><path class="svg__text" d="" fill="#FFFFFF"/><path class="svg__text" d="M15.61 22L13.18 22L16.89 13.60L19.23 13.60L22.95 22L20.48 22L19.82 20.37L16.27 20.37L15.61 22ZM18.04 15.93L16.96 18.61L19.12 18.61L18.04 15.93ZM28.89 15.48L26.31 15.48L26.31 13.60L33.83 13.60L33.83 15.48L31.27 15.48L31.27 22L28.89 22L28.89 15.48ZM40.58 22L38.21 22L38.21 13.60L40.58 13.60L40.58 16.76L43.82 16.76L43.82 13.60L46.20 13.60L46.20 22L43.82 22L43.82 18.72L40.58 18.72L40.58 22ZM52.78 22L50.35 22L54.06 13.60L56.40 13.60L60.12 22L57.65 22L56.99 20.37L53.44 20.37L52.78 22ZM55.22 15.93L54.13 18.61L56.29 18.61L55.22 15.93Z" fill="#FFFFFF" x="39"/></svg>